#!OML:ASF I:\Actors\actors\Patient Classification 2\Patient 1\Session 1\actor1.ASF
:FULLY-SPECIFIED
:DEGREES
94
root -0.659671 18.6886 5.82996 1.42853 -2.58727 -1.35027
lowerback 1.76541 1.26164 -0.724902
upperback -2.41066 1.65935 -0.00681171
thorax -3.48734 0.845556 0.319605
lowerneck -11.9147 -1.94497 -0.789549
upperneck 22.3423 -3.39223 3.52974
head 9.04032 -1.28405 0.952982
rclavicle -1.15047e-014 0
rhumerus -52.2637 2.62656 -90.1511
rradius 59.5605
rwrist 0.00436076
rhand -3.74774 -33.8619
rfingers 7.12502
rthumb 21.9962 -62.6312
lclavicle -1.15047e-014 0
lhumerus -44.6041 -2.2011 91.7403
lradius 40.4896
lwrist -10.1417
lhand -6.43779 -23.3779
lfingers 7.12502
lthumb 19.4115 5.6732
rfemur 6.88178 0.21836 14.8751
rtibia -4.77083e-015
rfoot -15.307 -8.0449
rtoes -2.61162
lfemur -3.4454 -7.57384 -13.3285
ltibia 20.2493
lfoot -23.2978 15.3413
ltoes -55.2284
95
root -0.658809 18.6894 5.82636 1.46216 -2.65281 -1.31089
lowerback 1.72467 1.25318 -0.720926
upperback -2.3698 1.64754 -0.0417333
thorax -3.42077 0.838846 0.283673
lowerneck -11.9087 -1.92833 -0.649039
upperneck 22.306 -3.37266 3.42244
head 9.02187 -1.27518 0.894944
rclavicle 1.32316e-014 3.37934e-015
rhumerus -52.3446 3.08457 -90.3763
rradius 62.4657
rwrist -2.12392
rhand -4.26906 -34.7682
rfingers 7.12502
rthumb 21.4956 -63.5955
lclavicle 1.32316e-014 3.37934e-015
lhumerus -45.0177 -3.62806 92.4896
lradius 41.8566
lwrist -8.66723
lhand -6.03653 -22.1388
lfingers 7.12502
lthumb 19.7972 6.87302
rfemur 6.82014 0.280948 14.826
rtibia -1.59028e-014
rfoot -15.3111 -8.03498
rtoes -2.21197
lfemur -3.46795 -7.57249 -13.378
ltibia 20.2249
lfoot -23.3214 15.398
ltoes -55.21
96
root -0.657241 18.6905 5.82155 1.49536 -2.70939 -1.25125
lowerback 1.71871 1.24411 -0.763283
upperback -2.34359 1.63394 -0.0477533
thorax -3.3912 0.832931 0.302358
lowerneck -11.9596 -1.93977 -0.621973
upperneck 22.3758 -3.38706 3.37662
head 9.05452 -1.28303 0.872812
rclavicle -7.64079e-015 -7.95139e-016
rhumerus -52.3636 3.51974 -90.4473
rradius 65.5754
rwrist -4.39792
rhand -5.43763 -34.4709
rfingers 7.12502
rthumb 20.3729 -63.4222
lclavicle -7.64079e-015 -7.95139e-016
lhumerus -45.5788 -5.34797 93.478
lradius 43.5806
lwrist -6.78069
lhand -5.84244 -21.6812
lfingers 7.12502
lthumb 19.9838 7.31121
rfemur 6.75259 0.334489 14.7535
rtibia 1.27222e-014
rfoot -15.3079 -8.03405
rtoes -2.06136
lfemur -3.49458 -7.56643 -13.4532
ltibia 20.2079
lfoot -23.3278 15.4555
ltoes -55.1937
97
root -0.65683 18.6918 5.8159 1.50757 -2.77289 -1.19408
lowerback 1.73158 1.22902 -0.818179
upperback -2.30284 1.61247 -0.0317977
thorax -3.35814 0.823621 0.350757
lowerneck -12.0412 -1.97587 -0.755688
upperneck 22.48 -3.4414 3.49335
head 9.11167 -1.30496 0.928405
rclavicle -2.37175e-014 7.95139e-016
rhumerus -52.2779 4.01769 -90.4889
rradius 68.8405
rwrist -6.76686
rhand -6.25875 -34.574
rfingers 7.12502
rthumb 19.5836 -63.6077
lclavicle -2.37175e-014 7.95139e-016
lhumerus -46.2098 -7.25955 94.6169
lradius 45.6187
lwrist -4.62612
lhand -5.8306 -22.2405
lfingers 7.12502
lthumb 19.9952 6.7507
rfemur 6.70403 0.396176 14.6905
rtibia 2.22639e-014
rfoot -15.309 -8.02928
rtoes -1.93423
lfemur -3.5068 -7.54307 -13.5221
ltibia 20.1993
lfoot -23.3308 15.5153
ltoes -55.1762
98
root -0.65799 18.6924 5.81046 1.50033 -2.82712 -1.20197
lowerback 1.71798 1.1981 -0.819807
upperback -2.22388 1.57278 0.00999186
thorax -3.2696 0.80397 0.397892
lowerneck -12.0851 -1.99188 -0.90822
upperneck 22.4742 -3.46574 3.63956
head 9.12397 -1.3133 1.00081
rclavicle -1.68222e-014 2.5842e-015
rhumerus -52.0094 4.55936 -90.5021
rradius 72.1545
rwrist -9.16794
rhand -6.53389 -35.2041
rfingers 7.12502
rthumb 19.3191 -64.2645
lclavicle -1.68222e-014 2.5842e-015
lhumerus -46.734 -9.15074 95.7262
lradius 47.8422
lwrist -2.62995
lhand -5.46939 -22.7029
lfingers 7.12502
lthumb 20.3424 6.25172
rfemur 6.68418 0.450582 14.7094
rtibia 3.18055e-015
rfoot -15.3078 -8.01933
rtoes -1.77189
lfemur -3.5018 -7.48156 -13.5057
ltibia 20.1925
lfoot -23.3334 15.5152
ltoes -55.1747
99
root -0.659221 18.693 5.80479 1.48206 -2.92505 -1.22052
lowerback 1.72081 1.18822 -0.813752
upperback -2.14457 1.56114 0.0488263
thorax -3.19007 0.798055 0.435966
lowerneck -12.1458 -1.99918 -0.94613
upperneck 22.4892 -3.47992 3.68588
head 9.1425 -1.31732 1.02088
rclavicle -1.85553e-014 3.97569e-016
rhumerus -51.5922 5.06892 -90.4657
rradius 75.4536
rwrist -11.5868
rhand -6.69815 -35.6087
rfingers 7.12502
rthumb 19.1611 -64.6849
lclavicle -1.85553e-014 3.97569e-016
lhumerus -47.255 -11.1002 96.8395
lradius 50.2182
lwrist -0.506734
lhand -5.11948 -23.0126
lfingers 7.12502
lthumb 20.6786 5.90582
rfemur 6.6674 0.54999 14.7378
rtibia 6.36111e-015
rfoot -15.2851 -8.03354
rtoes -1.79461
lfemur -3.47349 -7.40108 -13.4827
ltibia 20.1857
lfoot -23.3268 15.5157
ltoes -55.1515
100
root -0.659316 18.6946 5.79595 1.48628 -3.11626 -1.21154
lowerback 1.75957 1.22148 -0.808937
upperback -2.1001 1.60578 0.0593379
thorax -3.16687 0.820103 0.441762
lowerneck -12.2299 -2.03851 -0.894832
upperneck 22.6087 -3.53982 3.63429
head 9.19953 -1.34391 0.987221
rclavicle 6.20581e-015 1.98785e-015
rhumerus -51.0379 5.5008 -90.4076
rradius 78.6552
rwrist -14.046
rhand -6.70576 -35.8698
rfingers 7.12502
rthumb 19.1538 -64.9466
lclavicle 6.20581e-015 1.98785e-015
lhumerus -47.8162 -13.2373 98.0753
lradius 52.6081
lwrist 2.24089
lhand -5.50382 -23.7732
lfingers 7.12502
lthumb 20.3093 5.18491
rfemur 6.58623 0.740973 14.7305
rtibia 4.77083e-015
rfoot -15.2133 -8.0905
rtoes -1.98616
lfemur -3.46066 -7.32092 -13.5061
ltibia 20.1744
lfoot -23.3175 15.6213
ltoes -55.1396
101
root -0.660122 18.6968 5.7822 1.48407 -3.32447 -1.18209
lowerback 1.85211 1.25206 -0.85509
upperback -2.06172 1.64499 0.0813036
thorax -3.18209 0.840881 0.486683
lowerneck -12.3104 -2.09553 -0.892741
upperneck 22.7667 -3.6205 3.6036
head 9.27117 -1.38166 0.966577
rclavicle -4.48508e-015 -2.98177e-015
rhumerus -50.2744 5.97086 -90.3132
rradius 81.6492
rwrist -16.5308
rhand -6.56699 -36.2947
rfingers 7.12502
rthumb 19.2872 -65.3583
lclavicle -4.48508e-015 -2.98177e-015
lhumerus -48.2259 -15.2448 99.2294
lradius 55.3186
lwrist 4.07259
lhand -4.71691 -22.8057
lfingers 7.12502
lthumb 21.0654 6.07009
rfemur 6.48816 0.948761 14.7102
rtibia 0
rfoot -15.1104 -8.1626
rtoes -2.24121
lfemur -3.45529 -7.23796 -13.5477
ltibia 20.159
lfoot -23.3093 15.7615
ltoes -55.1695
102
root -0.66191 18.6991 5.77022 1.46634 -3.45997 -1.1484
lowerback 1.90261 1.24354 -0.945324
upperback -2.01975 1.63164 0.130189
thorax -3.17113 0.836715 0.587393
lowerneck -12.3512 -2.13133 -0.916192
upperneck 22.9403 -3.67103 3.59203
head 9.34099 -1.40575 0.96063
rclavicle -6.3549e-015 -2.5842e-015
rhumerus -49.3221 6.53894 -90.1752
rradius 84.3461
rwrist -19.0522
rhand -6.52384 -37.0175
rfingers 7.12502
rthumb 19.3287 -66.0769
lclavicle -6.3549e-015 -2.5842e-015
lhumerus -48.4967 -17.0144 100.278
lradius 58.0587
lwrist 5.70763
lhand -3.88058 -21.9329
lfingers 7.12502
lthumb 21.8686 6.85133
rfemur 6.43641 1.08498 14.6846
rtibia -9.54166e-015
rfoot -15.0624 -8.19884
rtoes -2.34107
lfemur -3.43911 -7.14216 -13.581
ltibia 20.1442
lfoot -23.2917 15.8163
ltoes -55.1519
103
root -0.663451 18.6996 5.76517 1.45315 -3.58457 -1.23204
lowerback 1.80189 1.23844 -0.887164
upperback -1.95751 1.62992 0.203668
thorax -3.05056 0.834814 0.633632
lowerneck -12.3281 -2.18129 -0.973451
upperneck 23.1026 -3.74408 3.6244
head 9.39713 -1.43946 0.973397
rclavicle -1.17904e-014 9.74045e-015
rhumerus -48.1543 7.03767 -89.9832
rradius 86.6555
rwrist -21.6824
rhand -6.61189 -37.2272
rfingers 7.12502
rthumb 19.2441 -66.2951
lclavicle -1.17904e-014 9.74045e-015
lhumerus -48.6009 -18.7483 101.288
lradius 60.8134
lwrist 7.24082
lhand -4.765 -21.9684
lfingers 7.12502
lthumb 21.0192 6.91253
rfemur 6.41233 1.21271 14.7768
rtibia 3.18055e-015
rfoot -15.0505 -8.21737
rtoes -2.39589
lfemur -3.39271 -7.01996 -13.4868
ltibia 20.1212
lfoot -23.3155 15.7907
ltoes -55.037
